<svg xmlns="http://www.w3.org/2000/svg" width="256" height="256" viewBox="0 0 100 100"><rect width="100" height="100" rx="50" fill="#000000"></rect><path fill="#fff" d="M46.06 34.83L46.06 34.83Q46.06 35.73 45.52 36.37Q44.98 37.01 44.27 37.33L44.27 37.33Q42.61 36.18 40.37 35.15Q38.13 34.13 34.54 34.13L34.54 34.13Q31.60 34.13 29.10 35.15Q26.61 36.18 24.75 38.16Q22.90 40.14 21.84 43.15Q20.78 46.16 20.78 50.06L20.78 50.06Q20.78 54.03 21.81 56.98Q22.83 59.92 24.66 61.90Q26.48 63.89 29.04 64.88Q31.60 65.87 34.74 65.87L34.74 65.87Q38.06 65.87 40.53 64.94Q42.99 64.02 44.66 62.74L44.66 62.74Q45.30 62.99 45.87 63.66Q46.45 64.34 46.45 65.23L46.45 65.23Q46.45 66.58 44.91 67.66L44.91 67.66Q43.44 68.69 40.88 69.49Q38.32 70.29 34.35 70.29L34.35 70.29Q30.32 70.29 26.86 69.01Q23.41 67.73 20.88 65.20Q18.35 62.67 16.88 58.90Q15.41 55.12 15.41 50.06L15.41 50.06Q15.41 45.01 16.91 41.20Q18.42 37.39 20.98 34.83Q23.54 32.27 26.96 30.99Q30.38 29.71 34.16 29.71L34.16 29.71Q36.78 29.71 38.99 30.16Q41.20 30.61 42.77 31.34Q44.34 32.08 45.20 33.01Q46.06 33.94 46.06 34.83ZM71.79 68.94L71.79 68.94Q71.47 69.26 70.58 69.52Q69.68 69.78 68.59 69.78L68.59 69.78Q67.38 69.78 66.42 69.42Q65.46 69.07 65.14 68.37L65.14 68.37Q64.30 66.70 63.18 64.08Q62.06 61.46 60.82 58.22Q59.57 54.99 58.26 51.41Q56.94 47.82 55.73 44.30Q54.51 40.78 53.42 37.49Q52.34 34.19 51.57 31.57L51.57 31.57Q51.95 31.06 52.72 30.61Q53.49 30.16 54.45 30.16L54.45 30.16Q55.66 30.16 56.24 30.74Q56.82 31.31 57.20 32.46L57.20 32.46Q60.08 40.85 62.70 48.66Q65.33 56.46 68.46 64.53L68.46 64.53L68.72 64.53Q70.13 60.88 71.63 56.75Q73.14 52.62 74.58 48.24Q76.02 43.86 77.39 39.38Q78.77 34.90 79.86 30.61L79.86 30.61Q80.69 30.16 82.03 30.16L82.03 30.16Q83.18 30.16 83.89 30.74Q84.59 31.31 84.59 32.46L84.59 32.46Q84.59 33.42 83.86 36.08Q83.12 38.74 81.97 42.26Q80.82 45.78 79.38 49.81Q77.94 53.84 76.53 57.55Q75.12 61.26 73.84 64.34Q72.56 67.41 71.79 68.94Z"></path></svg>